<?xml version="1.0" encoding="utf-8"?>
<!-- Generator: Adobe Illustrator 19.0.1, SVG Export Plug-In . SVG Version: 6.00 Build 0)  -->
<svg version="1.1" id="Ebene_1" xmlns="http://www.w3.org/2000/svg" xmlns:xlink="http://www.w3.org/1999/xlink" x="0px" y="0px"
	 viewBox="-233 356.9 128 128" style="enable-background:new -233 356.9 128 128;" xml:space="preserve">
<style type="text/css">
	.st0{fill:#272727;}
	.st1{fill:#FDC939;}
</style>
<rect x="-233" y="356.9" class="st0" width="128" height="128"/>
<g>
	<path class="st1" d="M-176.8,398c-10.4,3-16.3,13.9-13.3,24.2c3,10.4,13.9,16.3,24.2,13.3c10.4-3,16.3-13.9,13.3-24.2
		C-155.6,400.9-166.4,395-176.8,398"/>
	<path class="st1" d="M-138.5,384.2c-3.2-0.5-4.7-4.2-4.7-4.2l-0.1-0.1l-0.1-0.1c-4.5-8.4-12.1-9-15.4-8.1l-46.6,13.6
		c-3.4,1.1-9.4,5.6-8.7,15.1l0,0.1l0,0.2c0,0,0.7,4-1.9,6.2c-7.8,6-8.3,11.2-7.4,14.6l11.5,39.4c1.8,6.1,8.2,9.6,14.3,7.8l76.8-22.4
		c6.1-1.8,9.6-8.2,7.8-14.3l-11.5-39.4C-125.3,389.2-128.5,385-138.5,384.2 M-117.9,433.3c1,3.3-0.9,6.8-4.2,7.7l-9.4,2.7
		c-3.8-4.2-12.5-8.4-16.5-7.3l-31.8,9.3c-4,1.2-9.1,9.4-10,15l-9.2,2.7c-3.3,1-6.7-0.9-7.7-4.2l-11.5-39.4c-0.9-3.1,2.5-6.6,5.6-9
		c4.6-3.9,4-9.8,3.8-11.1c-0.5-7.5,4.4-9.4,5-9.6l46.4-13.5c0.5-0.1,5.7-1.2,9.3,5.4c0.5,1.1,3.1,6.5,9,7.3c4,0.4,8.8,1.4,9.7,4.6
		L-117.9,433.3z"/>
</g>
</svg>
